<?xml version="1.0" encoding="utf-8"?>
<!DOCTYPE svg PUBLIC "-//W3C//DTD SVG 1.1//EN" "http://www.w3.org/Graphics/SVG/1.1/DTD/svg11.dtd">
<svg version="1.1" id="Layer_1" xmlns="http://www.w3.org/2000/svg" xmlns:xlink="http://www.w3.org/1999/xlink" x="0px" y="0px"
	 width="100px" height="100px" viewBox="0 0 100 100" style="enable-background:new 0 0 100 100;" xml:space="preserve">
<path style="fill:#92C131;" d="M100,94c0,3.313-2.687,6-6,6H6c-3.313,0-6-2.687-6-6V6c0-3.313,2.687-6,6-6h88c3.313,0,6,2.687,6,6
	V94z"/>
<g>
	<path style="fill:#FFFFFF;" d="M83,77.667c0,1.354-0.495,2.525-1.484,3.516c-0.99,0.989-2.162,1.484-3.516,1.484
		c-1.406,0-2.578-0.495-3.516-1.484L61.086,67.823c-4.662,3.229-9.857,4.844-15.586,4.844c-3.725,0-7.285-0.723-10.684-2.168
		s-6.328-3.398-8.789-5.859s-4.414-5.391-5.859-8.789S18,48.892,18,45.167c0-3.724,0.723-7.285,2.168-10.684
		s3.398-6.328,5.859-8.789s5.391-4.414,8.789-5.859s6.959-2.168,10.684-2.168c3.724,0,7.285,0.723,10.684,2.168
		s6.328,3.398,8.789,5.859s4.414,5.391,5.859,8.789S73,41.443,73,45.167c0,5.729-1.615,10.925-4.844,15.586l13.398,13.398
		C82.518,75.114,83,76.286,83,77.667z M57.863,57.53C61.287,54.106,63,49.985,63,45.167c0-4.817-1.713-8.938-5.137-12.363
		c-3.425-3.424-7.546-5.137-12.363-5.137c-4.818,0-8.939,1.713-12.363,5.137C29.712,36.229,28,40.35,28,45.167
		c0,4.818,1.712,8.939,5.137,12.363c3.424,3.425,7.545,5.137,12.363,5.137C50.317,62.667,54.438,60.955,57.863,57.53z"/>
</g>
</svg>
