<?xml version="1.0" encoding="utf-8"?>
<!DOCTYPE svg PUBLIC "-//W3C//DTD SVG 1.1//EN" "http://www.w3.org/Graphics/SVG/1.1/DTD/svg11.dtd">
<svg version="1.1" id="Layer_1" xmlns="http://www.w3.org/2000/svg" xmlns:xlink="http://www.w3.org/1999/xlink" x="0px" y="0px"
	 width="55px" height="55px" viewBox="0 0 55 55" style="enable-background:new 0 0 55 55;" xml:space="preserve">
<g>
	<path d="M44.429,41.571c0,0.71-0.251,1.316-0.754,1.818c-0.502,0.502-1.108,0.753-1.817,0.753c-0.724,0-1.326-0.254-1.809-0.763
		l-6.891-6.871C30.761,38.17,28.089,39,25.143,39c-1.915,0-3.746-0.372-5.494-1.115s-3.255-1.747-4.521-3.013
		s-2.27-2.772-3.013-4.521S11,26.772,11,24.857s0.372-3.747,1.115-5.495c0.743-1.747,1.747-3.254,3.013-4.52
		s2.772-2.271,4.521-3.014s3.579-1.115,5.494-1.115s3.747,0.372,5.495,1.115c1.747,0.743,3.254,1.748,4.52,3.014
		s2.271,2.772,3.014,4.52c0.743,1.748,1.115,3.58,1.115,5.495c0,2.946-0.831,5.618-2.491,8.016l6.891,6.891
		C44.181,40.259,44.429,40.861,44.429,41.571z M31.501,31.216c1.761-1.762,2.642-3.881,2.642-6.358s-0.881-4.598-2.642-6.358
		s-3.881-2.642-6.358-2.642s-4.597,0.881-6.358,2.642c-1.761,1.761-2.642,3.881-2.642,6.358s0.881,4.597,2.642,6.358
		c1.762,1.761,3.881,2.642,6.358,2.642S29.74,32.977,31.501,31.216z"/>
</g>
</svg>
